<svg width="48" height="48" viewBox="0 0 48 48" fill="none" xmlns="http://www.w3.org/2000/svg">
<g clip-path="url(#clip0_324_453)">
<path d="M26.85 2.46377C26.6504 2.1977 26.3722 2.00122 26.0547 1.90221C25.7372 1.80321 25.3965 1.80669 25.0811 1.91218C24.7657 2.01767 24.4915 2.2198 24.2975 2.4899C24.1034 2.76 23.9993 3.08435 24 3.41693V9.75027C24 10.1702 24.1668 10.5729 24.4637 10.8699C24.7607 11.1668 25.1634 11.3336 25.5833 11.3336C26.0033 11.3336 26.406 11.1668 26.7029 10.8699C26.9999 10.5729 27.1667 10.1702 27.1667 9.75027V8.1416L29.0983 10.7066C29.3083 10.9842 29.6038 11.1848 29.9392 11.2775C30.2747 11.3703 30.6313 11.3499 30.954 11.2196L35.666 9.32593L33.5823 15.5833C33.5031 15.8212 33.4815 16.0745 33.5193 16.3224C33.5571 16.5702 33.6533 16.8056 33.7998 17.0091C33.9464 17.2125 34.1392 17.3783 34.3623 17.4926C34.5855 17.607 34.8326 17.6667 35.0833 17.6669H40.0772L35.6913 21.1819C35.5064 21.3303 35.3572 21.5183 35.2546 21.732C35.1521 21.9458 35.0988 22.1799 35.0988 22.4169C35.0988 22.654 35.1521 22.8881 35.2546 23.1018C35.3572 23.3156 35.5064 23.5036 35.6913 23.6519L40.0772 27.1669H35.0833C34.6634 27.1669 34.2607 27.3337 33.9637 27.6307C33.6668 27.9276 33.5 28.3303 33.5 28.7503C33.5 29.1702 33.6668 29.5729 33.9637 29.8699C34.2607 30.1668 34.6634 30.3336 35.0833 30.3336H44.5833C44.9113 30.3337 45.2311 30.2319 45.4988 30.0424C45.7664 29.8529 45.9685 29.5849 46.0773 29.2756C46.1861 28.9662 46.1962 28.6307 46.1061 28.3154C46.016 28.0001 45.8303 27.7205 45.5745 27.5153L39.2127 22.4169L45.5745 17.3186C45.8303 17.1134 46.016 16.8338 46.1061 16.5185C46.1962 16.2032 46.1861 15.8677 46.0773 15.5583C45.9685 15.2489 45.7664 14.981 45.4988 14.7915C45.2311 14.6019 44.9113 14.5002 44.5833 14.5003H37.281L39.751 7.08393C39.8462 6.79756 39.8575 6.48994 39.7837 6.19733C39.7099 5.90472 39.554 5.63929 39.3344 5.43232C39.1148 5.22534 38.8406 5.08544 38.5441 5.02909C38.2476 4.97274 37.9412 5.0023 37.661 5.11427L30.897 7.8281L26.85 2.46693V2.46377ZM22.4167 33.5003C22.8366 33.5003 23.2393 33.3335 23.5363 33.0365C23.8332 32.7396 24 32.3369 24 31.9169C24 31.497 23.8332 31.0943 23.5363 30.7973C23.2393 30.5004 22.8366 30.3336 22.4167 30.3336C21.9967 30.3336 21.594 30.5004 21.2971 30.7973C21.0001 31.0943 20.8333 31.497 20.8333 31.9169C20.8333 32.3369 21.0001 32.7396 21.2971 33.0365C21.594 33.3335 21.9967 33.5003 22.4167 33.5003ZM11.3333 31.9169C11.3333 32.3369 11.1665 32.7396 10.8696 33.0365C10.5727 33.3335 10.1699 33.5003 9.75 33.5003C9.33007 33.5003 8.92735 33.3335 8.63041 33.0365C8.33348 32.7396 8.16667 32.3369 8.16667 31.9169C8.16667 31.497 8.33348 31.0943 8.63041 30.7973C8.92735 30.5004 9.33007 30.3336 9.75 30.3336C10.1699 30.3336 10.5727 30.5004 10.8696 30.7973C11.1665 31.0943 11.3333 31.497 11.3333 31.9169ZM28.313 24.0003L28.598 25.9763C29.6747 27.1099 30.3333 28.6458 30.3333 30.3336V39.8336C30.3333 40.6735 29.9997 41.4789 29.4058 42.0728C28.812 42.6666 28.0065 43.0003 27.1667 43.0003C26.3268 43.0003 25.5214 42.6666 24.9275 42.0728C24.3336 41.4789 24 40.6735 24 39.8336H8.16667C8.16667 40.6735 7.83304 41.4789 7.23917 42.0728C6.64531 42.6666 5.83985 43.0003 5 43.0003C4.16015 43.0003 3.35469 42.6666 2.76083 42.0728C2.16696 41.4789 1.83333 40.6735 1.83333 39.8336V30.3336C1.83333 28.6458 2.49517 27.1099 3.57183 25.9763L3.85367 24.0003H1.83333C1.41341 24.0003 1.01068 23.8335 0.713748 23.5365C0.416815 23.2396 0.25 22.8369 0.25 22.4169C0.25 21.997 0.416815 21.5943 0.713748 21.2973C1.01068 21.0004 1.41341 20.8336 1.83333 20.8336H4.30333L4.62633 18.5789C4.78795 17.4469 5.35251 16.4112 6.21635 15.6619C7.0802 14.9127 8.18533 14.5002 9.32883 14.5003H22.8378C23.9813 14.5002 25.0865 14.9127 25.9503 15.6619C26.8142 16.4112 27.3787 17.4469 27.5403 18.5789L27.8602 20.8336H27.9583H30.3333C30.7533 20.8336 31.156 21.0004 31.4529 21.2973C31.7499 21.5943 31.9167 21.997 31.9167 22.4169C31.9167 22.8369 31.7499 23.2396 31.4529 23.5365C31.156 23.8335 30.7533 24.0003 30.3333 24.0003H28.313ZM7.76133 19.0286L7.03617 24.1016C7.40667 24.0319 7.78033 24.0003 8.16667 24.0003H24C24.3863 24.0003 24.76 24.0319 25.1305 24.1016L24.4022 19.0254C24.3482 18.6494 24.1608 18.3052 23.8742 18.0558C23.5876 17.8064 23.2209 17.6684 22.841 17.6669H9.32883C8.94735 17.667 8.57872 17.8048 8.29072 18.055C8.00273 18.3051 7.81474 18.6509 7.76133 19.0286ZM27.1667 30.3336C27.1667 29.4938 26.833 28.6883 26.2392 28.0944C25.6453 27.5006 24.8399 27.1669 24 27.1669H8.16667C7.32681 27.1669 6.52136 27.5006 5.92749 28.0944C5.33363 28.6883 5 29.4938 5 30.3336V36.6669H27.1667V30.3336Z" fill="black"/>
<path d="M28.3216 38.047H3.8327V30.5877C3.8327 28.489 5.53402 26.7877 7.63271 26.7877H24.5216C26.6203 26.7877 28.3216 28.489 28.3216 30.5877V38.047Z" fill="#1EBAED"/>
<path d="M26.5075 25.1957H5.66229L6.62105 18.4112C6.79766 17.1615 7.8673 16.2324 9.12947 16.2324H23.0403C24.3025 16.2324 25.3721 17.1615 25.5487 18.4112L26.5075 25.1957Z" fill="white"/>
<path d="M25.3004 4.3083L25.4094 11.2259L29.8699 20.848H30.107C30.6252 20.848 31.1189 21.0688 31.4643 21.455L31.5229 21.5204C32.1242 22.1927 31.9691 23.2456 31.1994 23.7159L33.6463 28.9945L43.4352 29.1844C44.036 29.1961 44.3138 28.4427 43.8492 28.0616L37.6695 22.9922C37.357 22.7358 37.3614 22.2561 37.6786 22.0055L44.1869 16.8641C44.6651 16.4864 44.3861 15.7174 43.777 15.734L36.2755 15.939C35.8391 15.9509 35.5218 15.5281 35.6552 15.1124L38.0574 7.62865C38.2211 7.1184 37.7167 6.64803 37.2191 6.84705L30.9535 9.35326C30.6836 9.46124 30.3748 9.37156 30.2047 9.13578L26.4472 3.92777C26.0847 3.42521 25.2906 3.68868 25.3004 4.3083Z" fill="#F36F21"/>
</g>
<defs>
<clipPath id="clip0_324_453">
<rect width="48" height="48" fill="white"/>
</clipPath>
</defs>
</svg>
