<svg width="48" height="48" viewBox="0 0 48 48" fill="none" xmlns="http://www.w3.org/2000/svg">
<path d="M5.20903 15.7742C5.01858 17.086 4.73291 20.1574 4.73291 24.5406C4.73291 28.9078 5.01858 30.7634 5.28838 32.3151C5.336 32.811 5.54231 33.131 5.78037 33.3709C6.52629 34.1708 7.66899 35.0826 10.8114 36.9063C13.9538 38.7139 16.9216 39.4338 17.9056 39.8817C18.2071 40.0257 18.3976 39.8177 18.4452 39.2738C18.5563 37.8501 18.5721 34.5867 18.5721 29.9476C18.5721 25.1325 18.7785 22.0131 18.6832 20.8293C18.6515 20.4454 18.4769 20.1894 18.2071 20.0454C17.3025 19.5655 14.7473 18.7177 11.478 17.4699C8.31969 16.2702 6.73262 15.6303 5.73276 15.2943C5.39948 15.1984 5.27251 15.3743 5.20903 15.7742Z" fill="#1FBBEE"/>
<path d="M42.949 14.4296C43.1077 15.5974 43.2664 18.5568 43.2664 22.6521C43.2664 26.7953 42.9331 29.7227 42.7427 30.8745C42.7268 31.1625 42.5522 31.3544 42.3141 31.5144C41.1397 32.3302 38.7591 34.0579 34.0772 35.9616C29.2367 37.9292 23.1582 39.5929 21.3648 39.9608C21.0315 40.0728 20.8411 39.9448 20.8093 39.5769C20.73 38.2171 20.6982 34.5218 20.6982 30.0267C20.6982 25.6595 20.73 22.2681 20.8411 20.8764C20.8728 20.4765 21.0474 20.2205 21.3489 20.0925C22.9995 19.3567 26.8878 18.2369 32.1093 16.7652C37.2038 15.3254 40.9334 14.3976 42.4094 14.1417C42.7426 14.0617 42.9172 14.1737 42.949 14.4296Z" fill="#1FBBEE"/>
<path d="M27.9194 8.03154C28.9827 8.19151 31.0776 8.41547 34.7755 9.35929C38.521 10.3191 40.5207 11.2469 41.711 11.7748C42.203 11.9668 42.0919 12.1428 41.5364 12.3507C39.6954 13.0226 35.5532 14.0784 31.2363 15.2622C26.6814 16.5099 21.9202 17.9177 20.2221 18.2536C19.7936 18.3336 19.3333 18.3176 18.9207 18.2216C17.5875 17.9337 15.2863 16.9099 12.1121 15.8221C9.27129 14.8463 7.44615 14.1584 6.57326 13.7585C6.11301 13.5505 6.1765 13.3745 6.65262 13.1826C8.23969 12.5267 11.6043 11.071 16.2861 9.90319C20.9839 8.71941 24.9674 8.19151 26.6021 8.04754C27.0782 8.01554 27.4908 7.96755 27.9194 8.03154Z" fill="#1FBBEE"/>
</svg>
