<svg width="30" height="30" viewBox="0 0 30 30" fill="none" xmlns="http://www.w3.org/2000/svg">
<g clip-path="url(#clip0_503_10404)">
<path d="M29.9999 15.3445C29.9999 14.3248 29.9156 13.2996 29.7356 12.2965H15.3008V18.0727H23.5669C23.2239 19.9357 22.1218 21.5837 20.5079 22.6309V26.3788H25.4395C28.3355 23.7663 29.9999 19.9081 29.9999 15.3445Z" fill="#4285F4"/>
<path d="M15.3007 30C19.4282 30 22.909 28.6717 25.4451 26.3788L20.5135 22.6309C19.1414 23.5458 17.3701 24.0639 15.3063 24.0639C11.3138 24.0639 7.92865 21.4238 6.71403 17.8743H1.625V21.738C4.22294 26.8032 9.51441 30 15.3007 30Z" fill="#34A853"/>
<path d="M6.70841 17.8743C6.06736 16.0114 6.06736 13.9941 6.70841 12.1312V8.26752H1.625C-0.545573 12.506 -0.545573 17.4996 1.625 21.738L6.70841 17.8743Z" fill="#FBBC04"/>
<path d="M15.3007 5.9361C17.4825 5.90303 19.5913 6.70773 21.1714 8.18486L25.5406 3.90229C22.774 1.3559 19.102 -0.0440591 15.3007 3.42701e-05C9.51441 3.42701e-05 4.22294 3.1968 1.625 8.26753L6.70841 12.1312C7.91741 8.57619 11.3082 5.9361 15.3007 5.9361Z" fill="#EA4335"/>
</g>
<defs>
<clipPath id="clip0_503_10404">
<rect width="30" height="30" fill="white"/>
</clipPath>
</defs>
</svg>
