<svg width="48" height="48" viewBox="0 0 48 48" fill="none" xmlns="http://www.w3.org/2000/svg">
<g clip-path="url(#clip0_225_2569)">
<path d="M14.6909 36.74V23.552L10.6009 19.8103L6.93335 17.7339V34.4127C6.93335 35.7004 7.97668 36.74 9.26068 36.74H14.6909V36.74Z" fill="#4285F4"/>
<path d="M33.3092 36.74H38.7395C40.0273 36.74 41.0668 35.6965 41.0668 34.4127V17.734L36.9127 20.1123L33.3092 23.552V36.74V36.74Z" fill="#34A853"/>
<path d="M14.6911 23.552L14.1346 18.3991L14.6911 13.4672L24.0002 20.4491L33.3092 13.4672L33.9319 18.1328L33.3092 23.552L24.0002 30.5339L14.6911 23.552Z" fill="#EA4335"/>
<path d="M33.3092 13.4672V23.552L41.0668 17.7339V14.6308C41.0668 11.7528 37.7815 10.1122 35.4815 11.8382L33.3092 13.4672Z" fill="#FBBC04"/>
<path d="M6.93335 17.7339L10.5012 20.4099L14.6909 23.552V13.4672L12.5187 11.8381C10.2147 10.112 6.93335 11.7528 6.93335 14.6307V17.7337V17.7339Z" fill="#C5221F"/>
</g>
<defs>
<clipPath id="clip0_225_2569">
<rect width="34.1333" height="25.7333" fill="white" transform="translate(6.93335 11.1334)"/>
</clipPath>
</defs>
</svg>
