<svg width="48" height="48" viewBox="0 0 48 48" fill="none" xmlns="http://www.w3.org/2000/svg">
<path d="M34.4262 11.5038L9.70618 36.0905V11.5038H34.4262Z" fill="#1EBAED"/>
<path fill-rule="evenodd" clip-rule="evenodd" d="M34.2222 9.73333H13.7778L13.4499 9.74251C10.4115 9.91301 8 12.4386 8 15.5292V32.4708L8.00915 32.7997C8.17912 35.8477 10.6968 38.2667 13.7778 38.2667H34.2222L34.5501 38.2575C37.5885 38.087 40 35.5614 40 32.4708V15.5292L39.9909 15.2003C39.8209 12.1523 37.3032 9.73333 34.2222 9.73333ZM14 11.6C11.7909 11.6 10 13.3909 10 15.6V32.2667C10 34.4758 11.7909 36.2667 14 36.2667H34C36.2091 36.2667 38 34.4758 38 32.2667V15.6C38 13.3909 36.2091 11.6 34 11.6H14Z" fill="black"/>
<path d="M29.8667 22.1524C31.2889 22.9735 31.2889 25.0263 29.8667 25.8474L22.6667 30.0044C21.2445 30.8255 19.4667 29.7991 19.4667 28.1568L19.4667 19.843C19.4667 18.2007 21.2445 17.1743 22.6667 17.9955L29.8667 22.1524Z" fill="black"/>
<path d="M29.0666 23.0764C29.7778 23.487 29.7778 24.5134 29.0666 24.924L22.2666 28.8499C21.5555 29.2605 20.6666 28.7473 20.6666 27.9262L20.6666 20.0742C20.6666 19.2531 21.5555 18.7399 22.2666 19.1504L29.0666 23.0764Z" fill="#F36F21"/>
</svg>
