<svg width="48" height="48" viewBox="0 0 48 48" fill="none" xmlns="http://www.w3.org/2000/svg">
<path d="M36 19.553L30.64 19.553V21.8197H34.46L38.6667 25.953H9.46667L13.56 21.953H17.66L17.2205 19.553H12L6.39052 25.1625C6.14048 25.4125 6 25.7517 6 26.1053V41.553C6 43.753 7.78 45.553 9.98 45.553H38C40.2 45.553 42 43.773 42 41.553V26.1053C42 25.7517 41.8595 25.4125 41.6095 25.1625L36 19.553ZM38 41.553H10V31.553H38V41.553Z" fill="black"/>
<path d="M8.19986 28.3082H39.8001V41.3312C39.8001 42.5094 38.845 43.4645 37.6668 43.4645H10.3332C9.15499 43.4645 8.19986 42.5094 8.19986 41.3312V28.3082Z" fill="#1EBAED"/>
<path fill-rule="evenodd" clip-rule="evenodd" d="M18.0712 8.20319L30.0066 8.20319C30.947 8.20319 31.7065 8.85734 31.7065 9.66724L31.7065 22.8749C31.7065 23.6848 30.947 24.3389 30.0066 24.3389L18.0712 24.3389C17.1308 24.3389 16.3713 23.6848 16.3713 22.8749L16.3713 9.64647C16.3713 8.83657 17.1308 8.18242 18.0712 8.20319ZM18.367 21.7567C18.367 22.1892 18.7741 22.5398 19.2763 22.5398H28.8242C29.3264 22.5398 29.7335 22.1892 29.7335 21.7567V10.7932C29.7335 10.3607 29.3264 10.0101 28.8242 10.0101L19.2763 10.0101C18.7741 10.0101 18.367 10.3607 18.367 10.7932L18.367 21.7567Z" fill="black"/>
<path d="M17.8883 10.7825C17.8883 10.1934 18.3658 9.71588 18.9549 9.71588H29.1123C29.7014 9.71588 30.1789 10.1934 30.1789 10.7825V22.0172C30.1789 22.6063 29.7014 23.0839 29.1123 23.0839H18.9549C18.3658 23.0839 17.8883 22.6063 17.8883 22.0172V10.7825Z" fill="#F36F21"/>
<path d="M22.3051 18.3782L20.4145 16.4856C20.2038 16.2747 19.8689 16.2747 19.6582 16.4856C19.4476 16.6964 19.4476 17.0317 19.6582 17.2426L21.9215 19.5084C22.1322 19.7193 22.4725 19.7193 22.6832 19.5084L28.4089 13.7818C28.6196 13.5709 28.6196 13.2356 28.4089 13.0247C28.1982 12.8138 27.8633 12.8138 27.6527 13.0247L22.3051 18.3782Z" fill="white"/>
</svg>
