<svg width="48" height="48" viewBox="0 0 48 48" fill="none" xmlns="http://www.w3.org/2000/svg">
<g clip-path="url(#clip0_324_1217)">
<path d="M40.3127 15.7433C40.1169 15.0198 39.735 14.3602 39.205 13.8302C38.675 13.3001 38.0154 12.9182 37.2919 12.7224C34.6431 12 23.9825 12 23.9825 12C23.9825 12 13.3215 12.0219 10.6727 12.7443C9.94913 12.9401 9.28952 13.322 8.75952 13.8521C8.22952 14.3821 7.84762 15.0418 7.65186 15.7653C6.85066 20.4717 6.53986 27.6432 7.67386 32.1613C7.86964 32.8849 8.25155 33.5445 8.78155 34.0745C9.31154 34.6045 9.97114 34.9865 10.6947 35.1823C13.3435 35.9047 24.0043 35.9047 24.0043 35.9047C24.0043 35.9047 34.6649 35.9047 37.3136 35.1823C38.0371 34.9865 38.6968 34.6045 39.2268 34.0745C39.7568 33.5445 40.1387 32.8849 40.3345 32.1613C41.1796 27.4483 41.44 20.2813 40.3127 15.7435V15.7433Z" fill="#FF0000"/>
<path d="M20.5894 29.0747L29.4333 23.9523L20.5895 18.8299L20.5894 29.0747Z" fill="white"/>
</g>
<defs>
<clipPath id="clip0_324_1217">
<rect width="34.1333" height="24" fill="white" transform="translate(6.93335 12)"/>
</clipPath>
</defs>
</svg>
