<svg width="117" height="30" viewBox="0 0 117 30" fill="none" xmlns="http://www.w3.org/2000/svg">
<path d="M48.5597 6.91696C49.3025 6.91696 49.8025 7.50348 49.7168 8.23306L47.3455 22.753C47.1883 23.4826 46.5027 24.0548 45.7741 24.0691H41.6172C40.8601 24.0548 40.3601 23.4397 40.4886 22.6815L42.8314 8.30458C42.96 7.53209 43.6742 6.91696 44.4313 6.91696H48.5597Z" fill="#224B68"/>
<path d="M12.3471 6.47333C17.804 6.47333 20.5467 8.47608 20.761 12.639C20.7181 13.2112 20.2467 13.5402 19.6467 13.5402H19.6325H19.6896H14.5898C14.2184 13.5259 14.0184 13.3828 13.9041 12.968C13.7899 11.3372 13.0613 10.6076 11.6614 10.6076C9.69005 10.6076 8.56153 12.0238 7.99013 15.4857C7.41873 18.9476 8.07584 20.3639 10.0615 20.3639C11.4614 20.3639 12.4185 19.6486 13.0613 18.0035C13.3185 17.5743 13.5613 17.4313 13.9613 17.4313H19.1039H18.9753H18.9896C19.5753 17.4313 19.9467 17.7603 19.8039 18.3325C18.2325 22.5097 14.8327 24.4981 9.37578 24.4981C2.80466 24.4981 0.147639 21.5941 1.14759 15.4714C2.16183 9.37732 5.76166 6.47333 12.3471 6.47333Z" fill="#224B68"/>
<path d="M39.3305 6.91598C40.0733 6.91598 40.5733 7.5025 40.4876 8.23207L38.1163 22.752C37.9591 23.4816 37.2734 24.0538 36.5449 24.0681H32.388C31.6308 24.0538 31.1309 23.4387 31.2594 22.6805C31.2594 22.6805 32.0023 18.1743 32.0451 17.8739C32.088 17.5878 31.8737 17.316 31.5594 17.316H28.5881C28.3024 17.316 27.9882 17.5592 27.9596 17.8024C27.9167 18.0313 27.1453 22.752 27.1453 22.752C26.9882 23.4816 26.3025 24.0538 25.574 24.0681H21.417C20.6599 24.0538 20.1599 23.4387 20.2885 22.6805L22.6313 8.3036C22.7598 7.53111 23.4741 6.91598 24.2312 6.91598H28.3453C29.0881 6.91598 29.5881 7.5025 29.5024 8.23207C29.5024 8.23207 28.7167 13.0673 28.6738 13.2676C28.631 13.4678 28.8453 13.7253 29.1024 13.7396H32.1594C32.4451 13.711 32.7308 13.4965 32.7736 13.1817C32.8165 12.8813 33.5736 8.2893 33.5736 8.2893C33.7022 7.5168 34.4164 6.90167 35.1735 6.90167H39.3305V6.91598Z" fill="#224B68"/>
<path d="M57.6738 6.91696C58.4309 6.91696 58.9595 7.53209 58.8309 8.30458L58.8452 8.27597L57.131 18.8477C57.131 19.4199 57.4881 19.8776 58.031 19.9921H61.8165C62.4879 20.035 62.9307 20.5643 62.8879 21.2367L62.645 22.6815C62.5165 23.4397 61.8165 24.0691 61.0594 24.0691H53.274H53.3455C51.2599 24.0691 49.8171 22.4383 50.0028 20.3783L51.9884 8.17584C52.1741 7.47487 52.8455 6.91696 53.5597 6.91696H57.6738Z" fill="#224B68"/>
<path d="M71.587 6.91696C72.3441 6.91696 72.8583 7.53209 72.7441 8.30458L72.7584 8.27597L71.0299 18.8477C71.0299 19.4199 71.387 19.8776 71.9298 19.9921H75.7296C76.401 20.035 76.8439 20.5643 76.801 21.2367L76.5582 22.6815C76.4296 23.4397 75.7296 24.0691 74.9725 24.0691H67.1872H67.2443C65.1587 24.0691 63.7302 22.4383 63.9016 20.3783L65.8872 8.17584C66.0729 7.47487 66.7443 6.91696 67.4586 6.91696H71.587Z" fill="#224B68"/>
<path d="M81.8722 7.73206C81.7008 8.9051 81.4437 11.6517 81.4437 15.5714C81.4437 19.4768 81.7008 21.1362 81.9436 22.5238C81.9865 22.9673 82.1722 23.2534 82.3865 23.468C83.0579 24.1833 84.0864 24.9987 86.9148 26.6295C89.7433 28.246 92.4146 28.8897 93.3003 29.2903C93.5717 29.419 93.7431 29.2331 93.7859 28.7467C93.8859 27.4735 93.9002 24.5552 93.9002 20.4066C93.9002 16.1007 94.0859 13.3112 94.0002 12.2526C93.9717 11.9092 93.8145 11.6804 93.5717 11.5516C92.7574 11.1224 90.4575 10.3643 87.5148 9.24843C84.6721 8.17553 83.2436 7.60331 82.3436 7.3029C82.0436 7.21707 81.9294 7.37443 81.8722 7.73206Z" fill="#1FBBEE"/>
<path d="M115.842 6.52967C115.985 7.57397 116.127 10.2205 116.127 13.8826C116.127 17.5877 115.827 20.2056 115.656 21.2356C115.642 21.4931 115.485 21.6648 115.27 21.8078C114.213 22.5374 112.07 24.0824 107.856 25.7847C103.499 27.5443 98.0282 29.0321 96.414 29.3611C96.114 29.4612 95.9426 29.3468 95.914 29.0177C95.8426 27.8018 95.814 24.4972 95.814 20.4774C95.814 16.5721 95.8426 13.5393 95.9426 12.2947C95.9712 11.9371 96.1283 11.7082 96.3997 11.5938C97.8854 10.9357 101.385 9.93436 106.085 8.61826C110.67 7.33078 114.027 6.50106 115.356 6.27218C115.656 6.20065 115.813 6.30079 115.842 6.52967Z" fill="#1FBBEE"/>
<path d="M102.314 0.808082C103.271 0.951136 105.157 1.15141 108.485 1.99543C111.856 2.85375 113.656 3.68347 114.728 4.15554C115.171 4.32721 115.071 4.48457 114.571 4.67054C112.914 5.27136 109.185 6.21552 105.3 7.27412C101.2 8.38994 96.9143 9.64881 95.3858 9.94923C95.0001 10.0208 94.5858 10.0064 94.2144 9.92062C93.0145 9.66312 90.9432 8.74757 88.0861 7.77481C85.5291 6.90218 83.8863 6.28705 83.1007 5.92941C82.6864 5.74344 82.7435 5.58608 83.1721 5.41442C84.6006 4.8279 87.629 3.52611 91.8431 2.48181C96.0715 1.42321 99.657 0.951136 101.128 0.822387C101.557 0.793777 101.928 0.75086 102.314 0.808082Z" fill="#1FBBEE"/>
</svg>
